<svg width="24" height="25" viewBox="0 0 24 25" fill="none" xmlns="http://www.w3.org/2000/svg">
<path fill-rule="evenodd" clip-rule="evenodd" d="M13.1781 0V2.07493H15.1781V0H13.1781ZM23.8608 8.68368H21.7859V10.6837H23.8608V8.68368ZM20.265 5.01279L22.0619 3.97533L23.0619 5.70738L21.265 6.74484L20.265 5.01279ZM18.1525 0.796982L17.115 2.59392L18.8471 3.59392L19.8845 1.79698L18.1525 0.796982ZM9.50528 3.59392L8.46781 1.79698L10.1999 0.796982L11.2373 2.59392L9.50528 3.59392ZM18.5815 9.68358C18.5815 10.7089 18.2351 11.6534 17.653 12.4063C18.3982 12.4128 19.1064 12.5747 19.7466 12.8611C20.2781 11.923 20.5815 10.8387 20.5815 9.68358C20.5815 6.1184 17.6914 3.22825 14.1262 3.22825C11.5663 3.22825 9.35438 4.71832 8.31055 6.87844L8.31551 6.87844C9.05452 6.87844 9.77007 6.97887 10.4493 7.16683C11.2521 5.99617 12.5995 5.22825 14.1262 5.22825C16.5868 5.22825 18.5815 7.22297 18.5815 9.68358Z" fill="#FF9F2E"/>
<path fill-rule="evenodd" clip-rule="evenodd" d="M8.94685 21.856L8.9818 21.8559V22.1529H9.11577V22.0055H17.8913V21.857H17.8917C20.0157 21.857 21.8563 20.0533 21.8563 17.6794C21.8563 15.3054 20.0157 13.5018 17.8917 13.5018C17.556 13.5018 17.2274 13.5468 16.9121 13.6321H16.1352C16.0625 13.0377 15.9229 12.465 15.7246 11.9222C16.3963 11.6508 17.1272 11.5018 17.8917 11.5018C21.1859 11.5018 23.8563 14.2676 23.8563 17.6794C23.8563 21.0188 21.2979 23.7394 18.1003 23.8533V24.0055H9.11577V23.8544C9.05959 23.8555 9.00328 23.856 8.94685 23.856C4.00564 23.856 0 19.7073 0 14.5896C0 9.47194 4.00564 5.32324 8.94685 5.32324C12.85 5.32324 16.1694 7.9119 17.3918 11.522C16.707 11.5811 16.055 11.76 15.4555 12.0384C14.4598 9.25608 11.8838 7.32324 8.94685 7.32324C5.17578 7.32324 2 10.5098 2 14.5896C2 18.6695 5.17578 21.856 8.94685 21.856Z" fill="#9CC6F1"/>
</svg>
